<svg xmlns="http://www.w3.org/2000/svg" xmlns:xlink="http://www.w3.org/1999/xlink" width="520.52523" height="520.19493" viewBox="0 0 520.52523 520.19493">
  <defs>
    <style>
      .cls-1, .cls-10, .cls-17, .cls-6 {
        fill: none;
      }

      .cls-2 {
        clip-path: url(#clip-path);
      }

      .cls-3 {
        fill: #74b7e5;
      }

      .cls-4 {
        fill: #f2f2f3;
      }

      .cls-5 {
        fill: #9d1c1f;
      }

      .cls-6 {
        stroke: #9d1c1f;
      }

      .cls-10, .cls-17, .cls-6 {
        stroke-miterlimit: 10;
      }

      .cls-17, .cls-6 {
        stroke-width: 4px;
      }

      .cls-7 {
        fill: #fff;
      }

      .cls-8 {
        fill: #8e8e8e;
      }

      .cls-9 {
        fill: #ccae7d;
      }

      .cls-10 {
        stroke: #000;
        stroke-width: 40px;
      }

      .cls-11 {
        fill: #666766;
      }

      .cls-12 {
        fill: #ffd24f;
      }

      .cls-13 {
        fill: #e17726;
      }

      .cls-14 {
        fill: #e0e0e0;
      }

      .cls-15 {
        fill: #fbb040;
      }

      .cls-16 {
        fill: #f7941d;
      }

      .cls-17 {
        stroke: #fbb040;
      }

      .cls-18 {
        fill: #cccccb;
      }
    </style>
    <clipPath id="clip-path" transform="translate(-59.43787 -121.80507)">
      <circle class="cls-1" cx="319.28862" cy="381.32552" r="260.67448"/>
    </clipPath>
  </defs>
  <title>Cypress-Hollyburn flipped</title>
  <g id="Layer_2" data-name="Layer 2">
    <g class="cls-2">
      <path class="cls-3" d="M531.06595,228.543c-85.3994-116.23154-248.85356-141.22593-365.0851-55.82653S24.75492,421.57,110.15432,537.80155" transform="translate(-59.43787 -121.80507)"/>
      <path d="M528.01676,224.53777c86.31747,115.55138,62.61871,279.19842-52.93267,365.51589S195.88567,652.67236,109.5682,537.121" transform="translate(-59.43787 -121.80507)"/>
      <g>
        <polyline class="cls-4" points="75.047 395.933 95.205 423.002 371.25 217.432 351.093 190.364"/>
        <path class="cls-5" d="M516.35759,233.36045s-10.00089,39.81655-85.6693,105.877L410.53065,312.1691Z" transform="translate(-59.43787 -121.80507)"/>
        <polygon class="cls-5" points="134.767 393.54 130.665 431.553 117.365 441.458 100.619 418.97 134.767 393.54"/>
        <line class="cls-6" x1="83.25219" y1="395.64962" x2="117.39998" y2="370.21998"/>
      </g>
      <circle class="cls-7" cx="420.51529" cy="423.33392" r="6.28675" transform="translate(-143.95405 619.31483) rotate(-77.37112)"/>
      <circle class="cls-7" cx="487.92261" cy="441.29418" r="6.28675" transform="translate(-108.81007 699.12486) rotate(-77.37112)"/>
      <circle class="cls-7" cx="527.43327" cy="328.71335" r="6.28675" transform="translate(31.91929 649.71293) rotate(-77.37112)"/>
      <circle class="cls-7" cx="407.41593" cy="563.4267" r="6.28675" transform="translate(-290.8929 715.99597) rotate(-77.37112)"/>
      <circle class="cls-7" cx="215.77817" cy="597.47017" r="6.28675" transform="translate(-473.85177 555.59493) rotate(-77.37112)"/>
      <circle class="cls-7" cx="211.11649" cy="519.44468" r="6.28675" transform="translate(-401.35645 490.07965) rotate(-77.37112)"/>
      <circle class="cls-7" cx="293.68833" cy="554.92399" r="6.28675" transform="translate(-371.45866 598.37609) rotate(-77.37112)"/>
      <circle class="cls-7" cx="308.42895" cy="460.37946" r="6.28675" transform="translate(-267.68367 538.88632) rotate(-77.37112)"/>
      <path class="cls-8" d="M392.64526,147.80682" transform="translate(-59.43787 -121.80507)"/>
      <path class="cls-9" d="M392.64526,147.80682" transform="translate(-59.43787 -121.80507)"/>
      <path class="cls-9" d="M159.525,314.155" transform="translate(-59.43787 -121.80507)"/>
      <path class="cls-10" d="M127.65733,525.97979C48.22263,419.64222,70.03171,269.044,176.36927,189.60933S433.305,131.9837,512.73973,238.32127" transform="translate(-59.43787 -121.80507)"/>
      <g>
        <polygon class="cls-5" points="344.536 422.228 346.124 402.725 348.073 400.278 350.3 401.412 363.348 429.172 367.982 420.193 370.122 418.805 390.181 428.1 318.273 331.077 316.397 332.467 334.524 355.275 333.843 357.562 309.932 370.728 316.937 375.637 318.103 377.744 308.74 412.409 316.245 410.51 317.78 412.047 324.679 429.907 335.762 417.336 337.769 416.838 344.536 422.228"/>
        <polygon class="cls-5" points="397.842 382.722 378.72 378.566 375.812 379.719 376.249 382.18 399.013 402.74 389.074 404.561 387.123 406.204 390.181 428.1 318.273 331.077 320.149 329.686 336.697 353.664 339.084 353.678 358.636 334.632 361.294 342.762 362.971 344.49 398.861 345.617 394.861 352.245 395.884 354.161 410.965 365.957 395.714 372.903 394.654 374.679 397.842 382.722"/>
      </g>
      <g>
        <path class="cls-7" d="M76.275,409.68906l-.45192-4.27435,15.456-1.6384a6.94978,6.94978,0,0,0,3.52921-1.02929,2.606,2.606,0,0,0,.70131-2.40092,2.54015,2.54015,0,0,0-1.194-2.17043,7.25632,7.25632,0,0,0-3.71512-.24561l-15.397,1.63236-.44739-4.21465,15.82932-1.67845a15.76041,15.76041,0,0,1,3.40074-.09673,5.072,5.072,0,0,1,1.96034.67259,5.6434,5.6434,0,0,1,2.06916,2.25129,9.82176,9.82176,0,0,1,.98546,3.53979q.41489,3.93239-1.11847,5.7276-1.53033,1.79786-5.77673,2.24751Z" transform="translate(-59.43787 -121.80507)"/>
        <path class="cls-7" d="M97.48205,389.40325l-23.05249.68771-.20556-6.90048a6.18244,6.18244,0,0,1,1.24694-4.44893,5.60142,5.60142,0,0,1,4.19123-1.57114,7.30744,7.30744,0,0,1,3.57.60458,2.94306,2.94306,0,0,1,1.57492,2.08881,3.45384,3.45384,0,0,1,1.53411-2.571,6.595,6.595,0,0,1,3.632-1.01569q3.66827-.10882,5.43514,1.3739a6.09856,6.09856,0,0,1,1.86361,4.73081Zm-13.82213-3.768-.04232-1.43662a2.868,2.868,0,0,0-.76932-2.209,4.04488,4.04488,0,0,0-2.60875-.53656,3.278,3.278,0,0,0-2.29437.69,3.33123,3.33123,0,0,0-.55016,2.36163l.0393,1.31722Zm10.41836-.31136-.05139-1.76536a2.88649,2.88649,0,0,0-.8857-2.311,4.54466,4.54466,0,0,0-2.85662-.58946,4.29635,4.29635,0,0,0-2.8672.82071,3.70333,3.70333,0,0,0-.71189,2.77727l.0393,1.28775Z" transform="translate(-59.43787 -121.80507)"/>
        <path class="cls-7" d="M89.29458,363.58407l.17835-4.17536c.09976.00453.24636.006.44134.00453.19649-.00151.34914-.00076.458.00378q3.99247.17117,5.85986,1.93691a6.4665,6.4665,0,0,1,1.71851,5.23639,8.37792,8.37792,0,0,1-.54563,2.80977,5.23333,5.23333,0,0,1-1.41169,1.97772,6.7541,6.7541,0,0,1-3.36144,1.50539,37.68809,37.68809,0,0,1-7.32293.16853,44.27161,44.27161,0,0,1-5.64977-.52523,8.83826,8.83826,0,0,1-3.09543-1.01644,5.74179,5.74179,0,0,1-2.19915-2.40168,7.64123,7.64123,0,0,1-.56226-3.54584q.14963-3.50163,2.042-5.018,1.89535-1.51446,5.93392-1.358l-.17684,4.15873-.5547-.02267a5.13607,5.13607,0,0,0-2.8143.48744,2.06225,2.06225,0,0,0-.99906,1.80844,2.08965,2.08965,0,0,0,1.18195,2.15607q1.24694.61553,7.00855.86,6.22109.26412,7.592-.22369a2.05482,2.05482,0,0,0,1.43587-2.02986,2.08283,2.08283,0,0,0-.96883-2.04951,9.14231,9.14231,0,0,0-3.87382-.73456Z" transform="translate(-59.43787 -121.80507)"/>
        <path class="cls-7" d="M98.70481,349.24654l-22.80159-3.46422,1.15625-7.6101q.52371-3.44835,2.1538-4.75424,1.63236-1.30475,4.79882-.823a6.55114,6.55114,0,0,1,3.37656,1.34443,3.27444,3.27444,0,0,1,1.13963,2.62764q1.256-2.89857,5.58628-2.3775c.127.01889.22672.03476.29624.04459l3.038.34007a7.65944,7.65944,0,0,0,2.11451-.01209,3.48687,3.48687,0,0,0,1.4661-.625l-.76328,5.03385a7.55109,7.55109,0,0,1-1.39657.0597q-.79124-.02834-2.21577-.21462l-2.39412-.303-.60609-.09144a3.567,3.567,0,0,0-2.8536.42925q-.86379.73229-1.26054,3.3229l-.22067,1.451L99.326,345.14449Zm-12.53891-6.10093.36879-2.44324a3.56385,3.56385,0,0,0-.34914-2.6813,3.83991,3.83991,0,0,0-2.54073-1.12,3.07366,3.07366,0,0,0-2.50295.42245,4.52352,4.52352,0,0,0-1.11544,2.7546l-.31589,2.0873Z" transform="translate(-59.43787 -121.80507)"/>
        <path class="cls-7" d="M90.09564,330.00892a39.569,39.569,0,0,1-5.63314-1.6641,8.49959,8.49959,0,0,1-2.97149-1.7971,5.94423,5.94423,0,0,1-1.64445-2.84075,10.29945,10.29945,0,0,1,1.66107-7.13929,6.03835,6.03835,0,0,1,2.73268-1.83716,8.70268,8.70268,0,0,1,3.48085-.28793,40.16715,40.16715,0,0,1,5.76463.99453,39.33328,39.33328,0,0,1,5.6014,1.65654,8.967,8.967,0,0,1,3.00626,1.7903,6.0384,6.0384,0,0,1,1.64294,2.85511,10.32051,10.32051,0,0,1-1.66107,7.13929,5.93607,5.93607,0,0,1-2.73117,1.8228,8.47834,8.47834,0,0,1-3.45969.30078A39.5936,39.5936,0,0,1,90.09564,330.00892Zm.996-4.2736q5.54094,1.29,7.128.97564a2.45346,2.45346,0,0,0,1.99359-2.05934,2.40268,2.40268,0,0,0-.86152-2.67752q-1.25827-.959-6.86043-2.26338-5.59989-1.30248-7.17934-.99453a2.755,2.755,0,0,0-1.10335,4.74366Q85.48952,324.43133,91.09168,325.73533Z" transform="translate(-59.43787 -121.80507)"/>
        <path class="cls-7" d="M100.47319,303.861l1.2545-3.98491c.09371.02947.23578.06953.42471.11789.18893.04912.33554.08993.43832.12243q3.81563,1.19933,5.16157,3.38714a6.478,6.478,0,0,1,.3038,5.50391,8.36233,8.36233,0,0,1-1.25752,2.57172,5.18642,5.18642,0,0,1-1.87419,1.54545,6.748,6.748,0,0,1-3.638.58342,37.607,37.607,0,0,1-7.11435-1.73362,44.39826,44.39826,0,0,1-5.32329-1.97167A8.85152,8.85152,0,0,1,86.12206,308.22a5.76171,5.76171,0,0,1-1.50237-2.88987,7.61872,7.61872,0,0,1,.37786-3.57078q1.0497-3.34293,3.27227-4.31667,2.21955-.97375,6.082.22445l-1.24845,3.97131-.529-.1655a5.14035,5.14035,0,0,0-2.846-.25846,2.05829,2.05829,0,0,0-1.43133,1.488,2.0869,2.0869,0,0,0,.5819,2.38883q1.04516.91707,6.546,2.64653,5.94223,1.867,7.39246,1.74949a2.0583,2.0583,0,0,0,1.91348-1.58777,2.08934,2.08934,0,0,0-.40658-2.23164,9.15275,9.15275,0,0,0-3.55189-1.71246Z" transform="translate(-59.43787 -121.80507)"/>
        <path class="cls-7" d="M110.63159,299.40829l-21.43374-8.51395,1.55376-3.91085,8.94924,3.55566-7.01308-8.42628,1.76385-4.43986,6.74254,8.947,14.82874-.78066-1.74269,4.38318-10.3972.33327,1.80315,2.36011,6.49768,2.58154Z" transform="translate(-59.43787 -121.80507)"/>
        <path class="cls-7" d="M116.80884,284.26819,96.019,274.28286l5.13134-10.67682,3.45515,1.65956-3.28134,6.82944,4.80638,2.30873,3.05311-6.35788,3.29343,1.58248-3.05462,6.35712,5.72383,2.74931,3.35842-6.99268,3.51108,1.686Z" transform="translate(-59.43787 -121.80507)"/>
        <path class="cls-7" d="M124.97062,268.055l-16.77548-9.45406-2.42586,4.30534-3.31459-1.86814,6.96321-12.35376,3.31308,1.86738-2.42586,4.30458,16.777,9.45482Z" transform="translate(-59.43787 -121.80507)"/>
        <path class="cls-7" d="M123.55743,256.72521l-3.035-1.89913,3.87685-6.19464,3.03346,1.89837Z" transform="translate(-59.43787 -121.80507)"/>
        <path class="cls-7" d="M139.10713,245.33575l-19.283-15.01768,2.78105-3.56776,7.56174,5.89008L134,227.71915l-7.56174-5.88933,2.778-3.56927L148.49771,233.279l-2.778,3.56851-8.74066-6.80677-3.8315,4.91974,8.73915,6.80753Z" transform="translate(-59.43787 -121.80507)"/>
        <path class="cls-7" d="M141.50578,222.50695a42.17838,42.17838,0,0,1-4.35295-4.45044,9.01944,9.01944,0,0,1-1.82129-3.19821,6.31588,6.31588,0,0,1-.0529-3.47783,10.911,10.911,0,0,1,5.22505-5.748,6.40041,6.40041,0,0,1,3.47783-.28793,9.18754,9.18754,0,0,1,3.369,1.53185,42.5454,42.5454,0,0,1,4.8215,3.89876,41.92479,41.92479,0,0,1,4.32725,4.42777,9.486,9.486,0,0,1,1.85454,3.20879,6.39964,6.39964,0,0,1,.04534,3.49067,10.92026,10.92026,0,0,1-5.22656,5.748,6.30888,6.30888,0,0,1-3.46725.27584,8.99722,8.99722,0,0,1-3.35691-1.50993A42.01274,42.01274,0,0,1,141.50578,222.50695Zm3.12868-3.44079q4.46177,4.05708,6.09262,4.58722a2.59977,2.59977,0,0,0,2.908-.87664,2.54889,2.54889,0,0,0,.58644-2.92161q-.66881-1.5394-5.17668-5.63843-4.51165-4.10016-6.1304-4.6303a2.91821,2.91821,0,0,0-3.47178,3.81866Q140.12508,214.96712,144.63447,219.06615Z" transform="translate(-59.43787 -121.80507)"/>
        <path class="cls-7" d="M163.591,216.67959,146.8049,198.91714l3.31006-3.12868,13.93095,14.74108,5.97321-5.646,2.85813,3.02213Z" transform="translate(-59.43787 -121.80507)"/>
        <path class="cls-7" d="M174.91921,206.15089l-15.521-18.87865,3.51863-2.89214,12.879,15.66684,6.35259-5.21976,2.639,3.21106Z" transform="translate(-59.43787 -121.80507)"/>
        <path class="cls-7" d="M187.89341,195.80735l-6.10622-8.37489-13.473-7.598,4.07787-2.97225,8.40059,5.24545-2.46214-9.575,3.96149-2.88912L185.49324,184.73l6.10471,8.37489Z" transform="translate(-59.43787 -121.80507)"/>
        <path class="cls-7" d="M198.38432,188.34612l-12.817-20.811,6.23016-3.83528a6.55529,6.55529,0,0,1,4.74592-1.20764,5.93193,5.93193,0,0,1,3.65769,3.02061,7.751,7.751,0,0,1,1.33158,3.598,3.10409,3.10409,0,0,1-1.08521,2.55056,3.66763,3.66763,0,0,1,3.16949.05063,6.97924,6.97924,0,0,1,2.8536,2.8007q2.03818,3.31006,1.6112,5.71778-.42849,2.40886-3.35993,4.21314Zm-3.84511-14.68667,1.29833-.798a3.041,3.041,0,0,0,1.62026-1.87494,4.27132,4.27132,0,0,0-.8857-2.67978,3.475,3.475,0,0,0-1.84547-1.74269,3.54011,3.54011,0,0,0-2.46063.74212l-1.1895.73229Zm5.79335,9.4057,1.59457-.98168a3.05576,3.05576,0,0,0,1.65352-2.03516,4.80324,4.80324,0,0,0-.96883-2.93446,4.56833,4.56833,0,0,0-2.27018-2.20141,3.93011,3.93011,0,0,0-2.92615.81618l-1.1623.71491Z" transform="translate(-59.43787 -121.80507)"/>
        <path class="cls-7" d="M202.08131,157.59888l4.05973-2.06614,7.47256,14.67987a7.36948,7.36948,0,0,0,2.35482,3.10223,2.76235,2.76235,0,0,0,2.642-.21462,2.69051,2.69051,0,0,0,1.69584-2.00341,7.68522,7.68522,0,0,0-1.1623-3.771l-7.44536-14.62319,4.00229-2.03742,7.65394,15.03279a16.65761,16.65761,0,0,1,1.383,3.3297,5.36028,5.36028,0,0,1,.07557,2.19612,5.972,5.972,0,0,1-1.44343,2.89894,10.38559,10.38559,0,0,1-3.13171,2.31553q-3.73175,1.89988-6.09262,1.06254-2.35785-.83658-4.41038-4.86911Z" transform="translate(-59.43787 -121.80507)"/>
        <path class="cls-7" d="M230.1412,170.92752l-9.24548-22.62324,7.55116-3.08712q3.42341-1.3977,5.49711-.625,2.06992.772,3.35691,3.91614a6.95818,6.95818,0,0,1,.61062,3.80505,3.45867,3.45867,0,0,1-1.7699,2.46365q3.32139-.433,5.20238,3.78918c.05139.12772.09069.2252.11789.294l1.34216,2.94807a8.20744,8.20744,0,0,0,1.16079,1.918,3.698,3.698,0,0,0,1.36634.993l-4.99531,2.042a8.22013,8.22013,0,0,1-.81316-1.2356q-.40355-.73683-1.00964-2.13415l-1.02476-2.342-.24485-.60155a3.78425,3.78425,0,0,0-1.94371-2.36163q-1.13585-.39109-3.70756.659l-1.4404.588,4.05822,9.93168Zm-1.26659-14.72294,2.42133-.99151a3.77234,3.77234,0,0,0,2.249-1.77519,4.062,4.062,0,0,0-.36123-2.92086,3.24615,3.24615,0,0,0-1.74571-2.04649,4.78124,4.78124,0,0,0-3.11055.48139l-2.07219.84792Z" transform="translate(-59.43787 -121.80507)"/>
        <path class="cls-7" d="M247.163,164.12226l-7.3456-23.31019,4.4648-1.4064,11.20582,14.38967-5.25679-16.26461,4.10205-1.293,7.34409,23.311-4.43306,1.39733L245.9811,146.54042,251.25,162.83527Z" transform="translate(-59.43787 -121.80507)"/>
        <path class="cls-7" d="M263.05736,152.15694l-.857-3.4748,7.09621-1.74949.857,3.47631Z" transform="translate(-59.43787 -121.80507)"/>
        <path class="cls-7" d="M282.24208,154.96368l-3.87836-22.73282,4.23657-.72322,3.87685,22.73358Z" transform="translate(-59.43787 -121.80507)"/>
        <path class="cls-7" d="M290.04111,153.60036l-2.60119-22.9142,7.64638-.86908q3.46536-.39335,5.15175.83885,1.68677,1.23334,2.04649,4.41794a6.56126,6.56126,0,0,1-.41867,3.61159,3.26426,3.26426,0,0,1-2.23844,1.78426q3.12415.458,3.7514,4.77313c.01511.12923.02721.229.03325.29775l.464,3.02137a7.69709,7.69709,0,0,0,.56377,2.03893,3.463,3.463,0,0,0,.987,1.253l-5.05879.57435a7.46558,7.46558,0,0,1-.4232-1.33158c-.1194-.51465-.24183-1.24618-.37181-2.19688l-.32949-2.38808-.06953-.60987a3.56486,3.56486,0,0,0-1.15928-2.64124q-.9318-.64841-3.53753-.35292l-1.45552.16626,1.14114,10.05788Zm2.61933-13.69592,2.45609-.27886a3.5657,3.5657,0,0,0,2.49614-1.03685,3.84113,3.84113,0,0,0,.41867-2.74553,3.07641,3.07641,0,0,0-1.05952-2.30646,4.526,4.526,0,0,0-2.95109-.359l-2.09788.23805Z" transform="translate(-59.43787 -121.80507)"/>
        <path class="cls-7" d="M307.28589,151.81535l-.96883-23.04116,11.83609-.49878.16021,3.8315-7.57081.31816.22369,5.32632,7.04785-.29624.15266,3.65089-7.04785.29549.26752,6.34427,7.75218-.32572.16324,3.89045Z" transform="translate(-59.43787 -121.80507)"/>
        <path class="cls-7" d="M331.49011,143.31879l4.17762.11411c-.003.099-.00151.24636.00151.4421.00453.19422.006.34612.003.45721q-.10656,3.997-1.844,5.88933a6.47125,6.47125,0,0,1-5.20994,1.79786,8.356,8.356,0,0,1-2.81733-.50255,5.21263,5.21263,0,0,1-2.00115-1.38146,6.76177,6.76177,0,0,1-1.55678-3.33726,37.74543,37.74543,0,0,1-.28114-7.3184,44.3535,44.3535,0,0,1,.43984-5.65883,8.84258,8.84258,0,0,1,.96732-3.1113,5.74055,5.74055,0,0,1,2.36843-2.23542,7.64937,7.64937,0,0,1,3.53677-.61591q3.505.09635,5.04821,1.96487,1.54394,1.87041,1.44947,5.912l-4.161-.1126.0136-.55394a5.12777,5.12777,0,0,0-.53052-2.80826,2.06169,2.06169,0,0,0-1.8228-.9711,2.09038,2.09038,0,0,0-2.13718,1.2152q-.59853,1.25714-.7527,7.01989-.17,6.22789.34007,7.59046a2.05614,2.05614,0,0,0,2.051,1.40337,2.07845,2.07845,0,0,0,2.0344-1.00057,9.124,9.124,0,0,0,.67561-3.8844Z" transform="translate(-59.43787 -121.80507)"/>
        <path class="cls-7" d="M345.34851,152.46c.00907-.07935.02116-.201.03174-.36652.01209-.164.02116-.28566.03174-.36577a12.37048,12.37048,0,0,1,1.74723-4.92125,16.76535,16.76535,0,0,1,3.91161-4.27587q.4557-.348,1.34065-1.00209a16.13222,16.13222,0,0,0,2.252-1.86512,4.99776,4.99776,0,0,0,.85094-1.36181,6.83066,6.83066,0,0,0,.44739-1.74571,3.64083,3.64083,0,0,0-.23881-2.22106,1.88724,1.88724,0,0,0-1.51144-.90838,1.83179,1.83179,0,0,0-1.7835.64312,5.49038,5.49038,0,0,0-.8857,2.67827c-.03174.2373-.05139.42094-.05743.55092-.00756.13-.01663.24485-.03174.3431l-3.97811-.52069c.0136-.09824.02417-.23352.03627-.4028.0136-.16928.02267-.28869.03476-.35746q.467-3.59345,2.20066-5.05123,1.72984-1.45778,4.99682-1.03a6.69634,6.69634,0,0,1,4.48142,2.11224,5.66491,5.66491,0,0,1,1.05045,4.54641,9.72948,9.72948,0,0,1-.6076,2.3979,8.0384,8.0384,0,0,1-1.1759,2.00568,16.00885,16.00885,0,0,1-2.44853,2.20217q-.97261.74816-1.50086,1.19253l-.01663.0136q-3.73855,3.19443-4.37864,4.622l8.09225,1.05876L357.762,154.084Z" transform="translate(-59.43787 -121.80507)"/>
        <path class="cls-7" d="M362.458,143.14044a51.462,51.462,0,0,1,1.451-5.93316,7.85055,7.85055,0,0,1,1.44645-2.77274,4.966,4.966,0,0,1,2.3911-1.50842,8.6294,8.6294,0,0,1,6.19691,1.23636,4.96243,4.96243,0,0,1,1.63236,2.311,7.86122,7.86122,0,0,1,.27206,3.11584,51.45463,51.45463,0,0,1-.93709,6.03518,55.57994,55.57994,0,0,1-1.457,6.039,8.28434,8.28434,0,0,1-1.40413,2.79692,5.29635,5.29635,0,0,1-2.46214,1.66183,8.03428,8.03428,0,0,1-6.2483-1.24618,5.15271,5.15271,0,0,1-1.62782-2.478,7.85435,7.85435,0,0,1-.24334-3.03422A55.96462,55.96462,0,0,1,362.458,143.14044Zm7.83229,3.68565,1.21671-6.11a8.72529,8.72529,0,0,0,.25694-3.53677,2.01731,2.01731,0,0,0-3.16042-.61591,9.49777,9.49777,0,0,0-1.15776,3.54206l-.43227,2.15758-1.22276,6.13947a8.87863,8.87863,0,0,0-.2645,3.55113,2.01336,2.01336,0,0,0,3.16949.60155,9.63266,9.63266,0,0,0,1.16079-3.55566Z" transform="translate(-59.43787 -121.80507)"/>
        <path class="cls-7" d="M379.83656,158.82315l4.23506-15.68649-4.91521-1.327.71189-2.63066a8.32353,8.32353,0,0,0,4.56757.03174,4.25535,4.25535,0,0,0,2.60875-2.48405l2.74629.74212-6.0503,22.40938Z" transform="translate(-59.43787 -121.80507)"/>
        <path class="cls-7" d="M396.60448,150.76188a3.623,3.623,0,0,1-1.50388-2.3057,6.50258,6.50258,0,0,1,.37484-3.35389,5.66527,5.66527,0,0,1,2.79768-3.536,6.00838,6.00838,0,0,1,4.59327.04156,6.07723,6.07723,0,0,1,1.90442,10.17729,3.95552,3.95552,0,0,1-2.71456.84943,3.76815,3.76815,0,0,1,1.94826,2.4901,7.87478,7.87478,0,0,1-.526,4.06275q-1.19933,3.49823-3.21483,4.63559a7.57474,7.57474,0,0,1-9.05655-3.03951q-.90006-2.06538.24485-5.39433a8.68177,8.68177,0,0,1,2.12357-3.69547A3.859,3.859,0,0,1,396.60448,150.76188Zm2.26112,2.40773a1.66918,1.66918,0,0,0-1.82884.29775,8.91105,8.91105,0,0,0-1.56585,3.17554,6.191,6.191,0,0,0-.49878,2.88458,2.07037,2.07037,0,0,0,3.109,1.02022,7.45049,7.45049,0,0,0,1.4661-2.86871,7.22829,7.22829,0,0,0,.57132-3.137A1.69922,1.69922,0,0,0,398.8656,153.1696Zm.21311-6.38659a4.817,4.817,0,0,0-.37181,2.3979,1.57019,1.57019,0,0,0,1.14416,1.11318,1.5957,1.5957,0,0,0,1.6112-.19044,4.6805,4.6805,0,0,0,1.185-2.09486,4.54641,4.54641,0,0,0,.34612-2.39185,1.67413,1.67413,0,0,0-1.20915-1.13509,1.49335,1.49335,0,0,0-1.54167.20707A4.82889,4.82889,0,0,0,399.07871,146.783Z" transform="translate(-59.43787 -121.80507)"/>
        <path class="cls-7" d="M504.74051,522.51357l-2.7221,3.49143c-.08464-.0665-.21009-.15719-.37937-.27508-.16777-.1194-.29927-.21462-.39146-.28566q-3.3418-2.605-3.86475-5.278-.52145-2.67072,1.74269-5.57419a8.82382,8.82382,0,0,1,2.20066-2.0873,5.51952,5.51952,0,0,1,2.43493-.83885,7.15074,7.15074,0,0,1,3.82546.77083,39.89885,39.89885,0,0,1,6.4206,4.362,46.82446,46.82446,0,0,1,4.54944,3.93126,9.37821,9.37821,0,0,1,2.04951,2.78407,6.12728,6.12728,0,0,1,.41716,3.42492,8.12091,8.12091,0,0,1-1.70037,3.40376q-2.283,2.92917-4.8487,3.07125-2.56643.14283-5.95508-2.48027l2.713-3.47934.4625.36123a5.46431,5.46431,0,0,0,2.72815,1.31344,2.18844,2.18844,0,0,0,1.977-.94465,2.21818,2.21818,0,0,0,.30682-2.5891q-.69829-1.29908-5.51525-5.05577-5.20767-4.06049-6.68964-4.48142a2.17857,2.17857,0,0,0-2.48783.86757,2.20843,2.20843,0,0,0-.42471,2.3654,9.70753,9.70753,0,0,0,2.88836,3.01684Z" transform="translate(-59.43787 -121.80507)"/>
        <path class="cls-7" d="M489.90723,526.55819l7.66149,6.97983,14.72143,4.7429-3.39923,3.73024-9.28176-3.45667,4.33179,8.88727-3.3025,3.62595-6.16063-14.13953-7.66-6.97983Z" transform="translate(-59.43787 -121.80507)"/>
        <path class="cls-7" d="M481.156,535.94423l16.74072,17.80628-5.75708,5.414q-2.63671,2.478-4.90009,2.38656-2.26716-.093-4.78824-2.775-2.478-2.63444-2.45911-5.083a6.8386,6.8386,0,0,1,2.55131-4.82754l2.41679-2.2717-7.10075-7.55116Zm6.212,13.0256-1.3875,1.30286a4.24589,4.24589,0,0,0-1.60364,2.65258,3.8827,3.8827,0,0,0,1.327,2.66165,3.95174,3.95174,0,0,0,2.50143,1.51446,4.27124,4.27124,0,0,0,2.71908-1.47668l1.43285-1.34821Z" transform="translate(-59.43787 -121.80507)"/>
        <path class="cls-7" d="M468.472,547.69417l15.27462,19.08194-6.36921,5.09809q-2.8861,2.308-5.09357,2.15531-2.21046-.15417-4.33026-2.80523a6.94766,6.94766,0,0,1-1.6641-3.47631,3.46241,3.46241,0,0,1,1.00057-2.86418q-3.06293,1.35576-6.06088-2.16287c-.08615-.10731-.15266-.18893-.198-.24636l-2.12206-2.44853a8.18708,8.18708,0,0,0-1.65654-1.50993,3.68558,3.68558,0,0,0-1.59155-.56679l4.2139-3.37051a8.06387,8.06387,0,0,1,1.129.95372q.59626.59173,1.57341,1.76234l1.64445,1.95429.40809.50784a3.77793,3.77793,0,0,0,2.53015,1.714q1.2016.05441,3.37051-1.68072l1.21369-.97186L465.041,550.442Zm5.38526,13.76318-2.045,1.63689a3.77557,3.77557,0,0,0-1.65352,2.33971,4.07788,4.07788,0,0,0,1.17439,2.69943,3.25461,3.25461,0,0,0,2.25356,1.46761,4.76776,4.76776,0,0,0,2.846-1.34367l1.74874-1.39808Z" transform="translate(-59.43787 -121.80507)"/>
        <path class="cls-7" d="M453.98784,559.039l13.76923,20.18983-10.36848,7.07354-2.28983-3.35691,6.63371-4.52374-3.18309-4.66733-6.17575,4.21239-2.18252-3.19972,6.17424-4.21239-3.78918-5.55757-6.79241,4.63105-2.3246-3.4083Z" transform="translate(-59.43787 -121.80507)"/>
        <path class="cls-7" d="M445.66434,574.99079l-3.94184,2.28076-.78746-1.3603a5.82831,5.82831,0,0,0-2.02533-2.37447,2.18889,2.18889,0,0,0-2.09183.2645,3.03477,3.03477,0,0,0-1.53562,1.73362,2.86532,2.86532,0,0,0,.42623,2.246,3.31629,3.31629,0,0,0,1.39657,1.36483,9.345,9.345,0,0,0,2.97754.61516l2.84453.26a13.84112,13.84112,0,0,1,5.05123,1.07463,6.58663,6.58663,0,0,1,2.42435,2.55736,6.36307,6.36307,0,0,1,.83583,5.09053,8.1734,8.1734,0,0,1-8.916,5.03007,7.3224,7.3224,0,0,1-4.23506-3.70908c-.11789-.201-.20556-.35821-.266-.47157q-.08615-.16777-.1451-.29927l3.73628-2.16287.32647.56377a4.78311,4.78311,0,0,0,1.98452,2.13264,2.52245,2.52245,0,0,0,2.2853-.331,2.29075,2.29075,0,0,0,1.16683-1.41924,2.44647,2.44647,0,0,0-.35065-1.85907q-.77083-1.33082-4.13832-1.5462a.16888.16888,0,0,1-.05895-.00453l-3.02137-.21311a11.80871,11.80871,0,0,1-4.826-1.0837A7.71366,7.71366,0,0,1,431.942,580.364a6.75906,6.75906,0,0,1-.928-5.40491,7.60446,7.60446,0,0,1,3.80732-4.29249q3.18536-1.8432,5.69813-1.09731,2.51428.74816,4.46933,4.12623.204.35594.62876,1.21218Z" transform="translate(-59.43787 -121.80507)"/>
        <path class="cls-7" d="M429.97861,583.91132l-4.1081,1.9679-.67864-1.41622a5.839,5.839,0,0,0-1.83489-2.52562,2.19264,2.19264,0,0,0-2.10695.10278,3.04053,3.04053,0,0,0-1.66712,1.60817,2.87621,2.87621,0,0,0,.25241,2.2717,3.3047,3.3047,0,0,0,1.28775,1.47063,9.39642,9.39642,0,0,0,2.9201.84338l2.81733.47913a13.87774,13.87774,0,0,1,4.95,1.46307,6.59807,6.59807,0,0,1,2.22031,2.73873,6.36123,6.36123,0,0,1,.43832,5.14041,8.17038,8.17038,0,0,1-9.27722,4.32272,7.32613,7.32613,0,0,1-3.9373-4.02648c-.09976-.20858-.17533-.37181-.2252-.48971-.04988-.11638-.0922-.22067-.12394-.30985l3.89347-1.86663.28113.58644a4.777,4.777,0,0,0,1.81524,2.28076,2.51936,2.51936,0,0,0,2.30192-.15266,2.28708,2.28708,0,0,0,1.27414-1.32553,2.4517,2.4517,0,0,0-.20556-1.88023q-.66428-1.3875-4.00834-1.86209a.24966.24966,0,0,1-.05592-.00756l-2.99568-.44739a11.826,11.826,0,0,1-4.72779-1.45552,7.70215,7.70215,0,0,1-2.59666-3.21635,6.75082,6.75082,0,0,1-.50633-5.46084,7.59793,7.59793,0,0,1,4.12623-3.98416q3.32139-1.59155,5.76766-.65294,2.44853.9386,4.1353,4.45875c.11789.24788.29624.66806.532,1.259Z" transform="translate(-59.43787 -121.80507)"/>
      </g>
      <g>
        <path d="M411.0463,520.21467l-2.92313-4.48747,2.15531-1.40262-10.91865-16.76792-2.15531,1.40262-2.92313-4.489,10.10852-6.58232,2.92313,4.489-2.15531,1.40262,10.91865,16.76792,2.15531-1.40262,2.92313,4.48747Z" transform="translate(-59.43787 -121.80507)"/>
        <path d="M422.698,512.62724l-2.92162-4.48747,2.1538-1.40262L411.01,489.96923l-2.1538,1.40262-2.92313-4.489,10.107-6.58232,2.92313,4.489-2.1538,1.40262,10.92016,16.76792,2.1538-1.40262,2.92161,4.48747Z" transform="translate(-59.43787 -121.80507)"/>
      </g>
      <rect class="cls-7" x="456.16533" y="382.79429" width="3.93087" height="3.93087" transform="translate(-76.92168 625.87973) rotate(-77.37112)"/>
      <rect class="cls-7" x="319.53847" y="463.35771" width="3.93087" height="3.93087" transform="translate(-262.29144 555.50777) rotate(-77.37112)"/>
      <rect class="cls-7" x="375.6496" y="471.69984" width="3.93087" height="3.93087" transform="translate(-226.58848 616.77963) rotate(-77.37112)"/>
      <rect class="cls-7" x="301.55417" y="561.60393" width="3.93087" height="3.93087" transform="translate(-372.21306 614.72471) rotate(-77.37112)"/>
      <rect class="cls-7" x="317.64714" y="558.76704" width="3.93087" height="3.93087" transform="translate(-356.87031 628.21169) rotate(-77.37112)"/>
      <rect class="cls-7" x="494.50563" y="429.93003" width="3.93087" height="3.93087" transform="translate(-92.95928 700.12268) rotate(-77.37112)"/>
      <rect class="cls-7" x="523.29424" y="310.43101" width="3.93087" height="3.93087" transform="translate(46.14306 634.84245) rotate(-77.37112)"/>
      <rect class="cls-7" x="549.37147" y="309.34705" width="3.93087" height="3.93087" transform="translate(67.57663 659.44182) rotate(-77.37112)"/>
      <rect class="cls-7" x="538.02765" y="299.44584" width="3.93087" height="3.93087" transform="translate(68.37464 640.63598) rotate(-77.37112)"/>
      <rect class="cls-7" x="312.18203" y="432.89132" width="3.93087" height="3.93087" transform="translate(-238.3102 524.52392) rotate(-77.37112)"/>
      <polyline class="cls-11" points="274.219 216.99 262.46 219.851 251.277 222.292 247.009 241.343 262.236 250.707 274.219 216.99"/>
      <polygon class="cls-11" points="220.84 272.965 200.403 269.373 188.899 288.837 180.355 298.406 183.322 309.476 224.562 280.242 220.84 272.965"/>
      <polyline class="cls-12" points="200.849 301.686 205.69 288.04 220.84 272.965 226.546 271.386 233.066 270.244 238.859 265.113 239.842 260.728 233.751 259.363 238.571 256.834 235.969 249.465 237.112 244.364 236.918 235.904 233.286 231.006 226.323 220.634 232.932 218.997 241.309 225.631 250.438 226.037 255.295 231.607 265.979 234 273.07 231.108 295.027 236.027 219.459 291.125"/>
      <polygon class="cls-13" points="238.859 265.113 244.164 254.039 243.05 246.408 240.547 245.848 241.181 238.276 216.66 206.447 243.29 233.605 250.02 232.834 251.955 241.201 262.214 237.844 271.355 247.75 236.773 275.35 235.619 264.538 238.859 265.113"/>
      <polygon class="cls-11" points="211.451 287.009 215.978 276.058 226.479 275.733 227.635 266.527 237.511 268.74 247.344 266.3 256.262 264.407 219.459 291.125 211.451 287.009"/>
      <polygon class="cls-11" points="281.646 231.96 296.912 206.332 302.638 202.059 312.033 207.473 316.67 211.711 289.05 240.403 281.646 231.96"/>
      <path class="cls-14" d="M109.5682,537.121,79.85307,513.15657l36.45237-40.224,35.78952,2.54631,23.39213-3.57261,4.99246-22.2822,17.80016-6.10323,6.95737-31.052,16.92621-2.20262,17.62961,9.945,27.78477-5.25785,20.71778-11.94431,36.22609-26.79525,4.00978-34.30944,28.44089-7.91394,20.52363-6.67116,4.81136-21.47392,3.433-15.3219,31.27425-7.29266L411.21046,257.568l-20.407-14.57271,10.4968-46.84908,15.62745-8.72866,31.3954.852,23.67142,5.30372,15.28356-11.51555s31.47547,27.51138,43.7879,46.4853Z" transform="translate(-59.43787 -121.80507)"/>
      <g>
        <polyline class="cls-4" points="228.712 228.06 237.764 221.32 169.029 129.014 159.977 135.754"/>
        <path class="cls-15" d="M198.1183,219.6667s2.96961,11.03306,21.88888,38.69135l4.36594-3.2327Z" transform="translate(-59.43787 -121.80507)"/>
        <path class="cls-15" d="M198.1183,219.6667s9.68748,6.058,30.62625,32.22075l-4.3654,3.23344Z" transform="translate(-59.43787 -121.80507)"/>
        <polygon class="cls-16" points="227.913 208.091 240.624 209.463 243.935 213.91 236.416 219.51 227.913 208.091"/>
        <polygon class="cls-16" points="218.651 214.982 216.25 227.545 219.538 232.01 227.094 226.445 218.651 214.982"/>
        <line class="cls-17" x1="231.23973" y1="223.37454" x2="222.73699" y2="211.95593"/>
        <path class="cls-14" d="M246.43516,316.04145" transform="translate(-59.43787 -121.80507)"/>
      </g>
      <polygon class="cls-18" points="347.68 87.08 354.832 115.733 382.832 116.292 399.478 91.449 399.656 129.348 359.184 134.566 331.366 121.19 341.862 74.341 347.68 87.08"/>
      <polygon class="cls-18" points="155.728 319.692 164.171 313.127 163.764 297.932 153.555 299.931 151.247 310.232 141.885 308.134 145.799 290.664 162.725 288.461 172.692 295.378 169.361 318.719 155.728 319.692"/>
      <polygon class="cls-18" points="64.631 397.129 76.72 374.402 61.798 363.242 50.792 385.571 63.177 353.78 88.137 373.849 97.575 365.778 99.212 358.472 114.169 358.494 124.564 360.823 101.497 377.711 85.589 382.522 64.631 397.129"/>
      <polygon class="cls-18" points="193.355 310.461 208.14 293.148 211.678 277.355 228.858 281.204 239.011 277.036 193.355 310.461"/>
      <polygon class="cls-18" points="310.061 225.021 293.477 221.305 280.884 224.984 269.093 220.099 261.405 224.561 257.815 240.586 262.236 250.707 252.658 263.6 310.061 225.021"/>
      <polygon class="cls-18" points="431.859 105.94 437.365 81.366 421.515 72.815 447.362 78.606 420.273 138.846 393.977 163.586 431.859 105.94"/>
      <path class="cls-18" d="M507.785,245.58693l9.37629-34.38051A184.15284,184.15284,0,0,1,531.06595,228.543Z" transform="translate(-59.43787 -121.80507)"/>
      <polygon class="cls-18" points="353.151 181.177 347.445 174.207 326.302 168.719 357.577 161.426 369.129 154.64 358.761 171.524 353.151 181.177"/>
    </g>
  </g>
</svg>
